# xmcd
#
# Track frame offsets:
# 150
# 28400
# 39932
# 51145
# 65551
# 77140
# 104148
# 115951
# 132440
# 154575
# 166895
# 181719
# 196741
# 214272
# 232311
# 252932
# 280240
# 300446
# 313971
# 337456
#
# Disc length: 4687 seconds
#
#
# Revision: 0
# Processed by: cddbd v1.5.1PL0 Copyright (c) Steve Scherf et al.
# Submitted via: FreeRIP 2.942 
#
DISCID=2e124d14
DTITLE=varius - Natal 2003
DYEAR=2003
DGENRE=Blues
TTITLE0=George Jones and BB King - Patches
TTITLE1=Natalie Cole - LOVE
TTITLE2=Dinah Washington - Makin whoopie
TTITLE3=Gospel Congregation - O Happy Day
TTITLE4=Dinah Washington - Time after time
TTITLE5=Odetta - Homeless Blues
TTITLE6=Dinah Washington -When I fall in love
TTITLE7=Odetta - Look the world over
TTITLE8=Odetta - Blues everywhere I go
TTITLE9=Aretha Franklin - Natural woman
TTITLE10=Odetta - Hear me talking to you
TTITLE11=Aretha Franklin - Share your love with me
TTITLE12=Ray Charles - Ruby
TTITLE13=Sara Vaughaa - Love man
TTITLE14=Etta Jones - St Louis Blues
TTITLE15=BB king and Etta Jones - Theres something on your mind
TTITLE16=Dr. John - Basin Street Blues
TTITLE17=Etta Jones - At last
TTITLE18=Sammy Davis Jr - Birth of the Blues
TTITLE19=Etta Jones and Louie Armstrong - Dream a little dream of me
EXTD=
EXTT0=
EXTT1=
EXTT2=
EXTT3=
EXTT4=
EXTT5=
EXTT6=
EXTT7=
EXTT8=
EXTT9=
EXTT10=
EXTT11=
EXTT12=
EXTT13=
EXTT14=
EXTT15=
EXTT16=
EXTT17=
EXTT18=
EXTT19=
PLAYORDER=
